<?xml version="1.0" standalone="no"?>
<!DOCTYPE svg PUBLIC "-//W3C//DTD SVG 20010904//EN"
 "http://www.w3.org/TR/2001/REC-SVG-20010904/DTD/svg10.dtd">
<svg version="1.0" xmlns="http://www.w3.org/2000/svg"
 width="1080.000000pt" height="1080.000000pt" viewBox="0 0 1080.000000 1080.000000"
 preserveAspectRatio="xMidYMid meet">

<g transform="translate(0.000000,1080.000000) scale(0.100000,-0.100000)"
fill="#000000" stroke="none">
<path d="M0 5400 l0 -5400 5400 0 5400 0 0 5400 0 5400 -5400 0 -5400 0 0
-5400z m6490 1415 c5 -597 6 -653 22 -677 27 -41 69 -77 103 -88 18 -6 353
-11 870 -13 l840 -3 80 -23 c248 -71 419 -225 481 -436 16 -54 18 -124 21
-745 3 -525 1 -695 -8 -730 -16 -56 -79 -121 -135 -138 -26 -8 -110 -12 -230
-12 l-189 0 -24 -79 c-67 -224 -267 -430 -494 -506 -116 -38 -231 -51 -340
-37 -316 40 -567 243 -663 538 l-27 84 -1040 -2 -1040 -3 -13 -50 c-38 -146
-132 -287 -270 -401 -67 -56 -127 -89 -223 -124 -417 -153 -880 78 -1017 505
l-22 70 -234 5 c-233 5 -233 5 -280 33 -31 18 -57 44 -75 75 l-28 47 -3 332
-3 332 -252 3 c-271 3 -291 7 -339 62 -105 119 -63 284 87 343 22 8 282 12
996 12 l966 1 44 23 c118 63 140 228 41 323 -59 56 -12 54 -1045 54 -810 0
-961 2 -1003 15 -113 33 -176 167 -130 277 20 46 85 104 133 117 25 7 261 11
689 11 702 0 688 -1 746 53 97 90 84 255 -25 315 -29 15 -87 17 -624 22 l-591
5 -44 30 c-131 93 -122 283 17 354 44 23 63 26 192 30 l143 3 0 219 c0 120 5
240 10 267 13 60 60 118 114 143 39 18 110 19 1926 16 l1885 -2 5 -650z m555
573 c312 -101 545 -284 767 -603 64 -92 208 -325 208 -337 0 -4 -254 -8 -565
-8 l-565 0 0 488 c0 269 3 492 6 495 9 8 35 2 149 -35z"/>
<path d="M7518 4479 c-116 -16 -229 -99 -283 -206 -28 -53 -30 -67 -30 -163 0
-98 2 -109 32 -165 38 -74 105 -138 181 -173 50 -24 70 -27 157 -27 87 0 107
3 157 27 147 68 235 235 209 394 -33 208 -215 342 -423 313z"/>
<path d="M3815 4460 c-117 -47 -201 -141 -231 -260 -23 -90 -14 -166 31 -257
40 -82 92 -132 175 -172 48 -22 68 -26 160 -26 96 0 110 2 159 28 72 38 141
109 177 182 26 54 29 70 29 155 -1 84 -4 102 -30 155 -34 72 -114 153 -181
185 -70 34 -218 39 -289 10z"/>
</g>
</svg>
